<svg width="1266" height="158" viewBox="0 0 1266 158" fill="none" xmlns="http://www.w3.org/2000/svg">
<path d="M671.467 39.7447C671.467 39.7447 623.098 3.23716 585.567 11.7633L582.271 12.6741C577.139 14.1525 572.649 17.3038 569.515 21.6266C569.01 22.3597 568.55 23.1234 568.139 23.9131L554.277 47.457L578.219 52.127C583.119 55.58 588.691 57.9619 594.574 59.1171C600.456 60.2724 606.516 60.1751 612.358 58.8316L655.008 67.164L671.467 39.7447Z" fill="#76B3E1"/>
<path opacity="0.3" d="M671.467 39.7447C671.467 39.7447 623.098 3.23716 585.567 11.7633L582.271 12.6741C577.139 14.1525 572.649 17.3038 569.515 21.6266C569.01 22.3597 568.55 23.1234 568.139 23.9131L554.277 47.457L578.219 52.127C583.119 55.58 588.691 57.9619 594.574 59.1171C600.456 60.2724 606.516 60.1751 612.358 58.8316L655.008 67.164L671.467 39.7447Z" fill="url(#paint0_linear_347_2352)"/>
<path d="M569.089 39.2795L565.774 40.2096C550.458 45.1509 545.224 59.471 554.025 72.0277C559.107 78.4138 565.982 83.1359 573.768 85.5874C581.555 88.039 589.896 88.1081 597.722 85.7858L654.95 67.1639C654.95 67.1639 606.678 30.7533 569.089 39.2795Z" fill="#518AC8"/>
<path opacity="0.3" d="M569.089 39.2795L565.774 40.2096C550.458 45.1509 545.224 59.471 554.025 72.0277C559.107 78.4138 565.982 83.1359 573.768 85.5874C581.555 88.039 589.896 88.1081 597.722 85.7858L654.95 67.1639C654.95 67.1639 606.678 30.7533 569.089 39.2795Z" fill="url(#paint1_linear_347_2352)"/>
<path d="M644.481 80.5734C639.408 74.1532 632.525 69.4012 624.721 66.9314C616.918 64.4615 608.553 64.3874 600.707 66.7184L543.537 85.2434L525.547 117.255L627.964 134.695L646.323 102.044C649.987 95.7849 649.619 87.8982 644.481 80.5734Z" fill="url(#paint2_linear_347_2352)"/>
<path d="M626.491 112.585C621.42 106.19 614.553 101.454 606.771 98.9857C598.989 96.5172 590.647 96.4282 582.814 98.7301L525.547 117.255C525.547 117.255 574.012 153.763 611.447 145.237L614.743 144.326C630.077 139.462 635.312 125.142 626.491 112.585Z" fill="url(#paint3_linear_347_2352)"/>
<path d="M737.186 97.1995C741.399 101.301 747.01 103.655 752.889 103.788C759.48 103.788 764.908 99.9123 764.908 93.3239C764.908 78.2094 734.86 81.8911 734.86 63.2886C734.86 54.5686 742.614 47.2051 753.664 47.2051C759.572 47.0295 765.325 49.108 769.755 53.0184L766.828 58.0566C763.214 54.7711 758.529 52.9115 753.645 52.8246C745.891 52.8246 741.044 57.8628 740.85 63.0948C740.85 77.4342 770.899 73.3649 770.899 93.1301C770.899 102.044 763.92 109.407 752.676 109.407C749.148 109.477 745.643 108.826 742.376 107.493C739.109 106.16 736.149 104.174 733.677 101.656L737.186 97.1995ZM832.373 47.5927C836.416 47.5744 840.424 48.3604 844.161 49.9047C847.898 51.449 851.29 53.7209 854.141 56.5881C856.991 59.4554 859.243 62.8607 860.764 66.6058C862.286 70.351 863.047 74.3612 863.003 78.4031C863.054 82.4747 862.302 86.5166 860.791 90.2978C859.279 94.079 857.037 97.5256 854.193 100.441C851.348 103.356 847.957 105.682 844.213 107.287C840.47 108.892 836.446 109.744 832.373 109.795H832.179C828.105 109.744 824.082 108.892 820.338 107.287C816.594 105.682 813.203 103.356 810.359 100.441C807.514 97.5256 805.272 94.079 803.761 90.2978C802.249 86.5166 801.497 82.4747 801.548 78.4031V78.2094C801.53 74.1673 802.316 70.1619 803.862 66.4264C805.407 62.6909 807.679 59.2999 810.548 56.4507C813.416 53.6015 816.823 51.351 820.57 49.8303C824.317 48.3096 828.329 47.5489 832.373 47.5927ZM832.179 104.369C838.86 104.217 845.207 101.418 849.824 96.5886C854.441 91.7592 856.95 85.2945 856.799 78.6163V78.4031C856.799 64.0637 845.943 53.0184 832.373 53.0184C829.091 53.0228 825.844 53.6816 822.821 54.9564C819.798 56.2312 817.059 58.0963 814.766 60.4424C812.473 62.7884 810.672 65.5683 809.467 68.6191C808.263 71.67 807.68 74.9304 807.752 78.2094C807.752 92.9364 818.608 104.175 832.179 104.369ZM897.898 48.7553H903.714L903.52 103.594H931.436V108.826H897.51L897.898 48.7553ZM963.617 48.9491H969.433L969.239 109.214H963.423L963.617 48.9491ZM1008.59 48.9491H1027.98C1046.01 48.9491 1058.22 59.9944 1058.22 79.1782C1058.22 98.3621 1046.01 109.214 1027.98 109.214H1008.59V48.9491ZM1027.2 103.982C1041.94 103.982 1051.82 95.2617 1052.02 79.1782C1052.21 63.0948 1042.13 54.3748 1027.4 54.3748H1014.41L1014.22 103.982H1027.2Z" fill="#58595B"/>
<path d="M1108.96 109.214C1113.97 109.368 1118.86 107.624 1122.64 104.33C1124.52 102.585 1125.99 100.448 1126.95 98.0698C1127.91 95.6918 1128.33 93.1319 1128.19 90.5722V49.666H1116.07V89.6809C1116.21 91.7971 1115.51 93.8828 1114.13 95.4942C1113.44 96.2006 1112.6 96.7508 1111.67 97.1083C1110.74 97.4658 1109.75 97.6223 1108.76 97.5676C1104.96 97.5676 1102.19 95.3391 1100.45 90.8823L1090.19 96.5987C1093.54 105.009 1099.79 109.214 1108.96 109.214Z" fill="#58595B"/>
<path d="M1181.58 109.349C1188.3 109.349 1193.58 107.683 1197.36 104.33C1199.22 102.695 1200.69 100.666 1201.67 98.3898C1202.65 96.1139 1203.11 93.6486 1203.02 91.173C1203.09 89.0944 1202.7 87.0254 1201.86 85.1222C1201.02 83.2189 1199.76 81.5311 1198.17 80.1859C1194.91 77.3955 1189.7 74.9927 1182.53 72.9386C1179.94 72.3562 1177.47 71.3267 1175.24 69.8963C1174.57 69.4297 1174.02 68.8057 1173.65 68.0792C1173.28 67.3527 1173.09 66.5461 1173.11 65.7301C1173.08 64.8853 1173.26 64.0474 1173.63 63.2881C1174.01 62.5288 1174.56 61.8707 1175.24 61.3702C1176.88 60.1997 1178.87 59.6192 1180.88 59.7231C1183.26 59.5629 1185.62 60.1794 1187.62 61.4795C1189.61 62.7797 1191.13 64.6931 1191.95 66.9316L1201.97 61.4477C1200.42 57.5542 1197.65 54.2651 1194.08 52.0689C1190.26 49.7933 1185.87 48.6446 1181.42 48.7553C1176.15 48.6117 1171.01 50.4043 1166.98 53.7935C1165.06 55.3005 1163.53 57.2315 1162.49 59.4342C1161.45 61.6369 1160.93 64.051 1160.99 66.4859C1160.94 68.5111 1161.31 70.5244 1162.09 72.3965C1162.86 74.2686 1164.02 75.9581 1165.49 77.3567C1168.17 80.0696 1172.94 82.4531 1179.77 84.5071C1182.85 85.243 1185.81 86.4315 1188.54 88.0338C1189.25 88.4354 1189.85 89.0246 1190.25 89.7383C1190.66 90.4519 1190.86 91.2628 1190.84 92.0838C1190.84 92.9802 1190.61 93.8609 1190.17 94.6436C1189.73 95.4263 1189.1 96.0856 1188.34 96.56C1186.44 97.7961 1184.21 98.4123 1181.95 98.3234C1179.24 98.3893 1176.57 97.6439 1174.29 96.1832C1172.01 94.7224 1170.22 92.6131 1169.15 90.1266L1158.68 95.533C1160.4 99.7671 1163.46 103.325 1167.39 105.667C1171.68 108.197 1176.6 109.473 1181.58 109.349Z" fill="#58595B"/>
<g clip-path="url(#clip0_347_2352)">
<path d="M455.5 4.5H19.5C11.4919 4.5 5 10.9919 5 19V139C5 147.008 11.4919 153.5 19.5 153.5H455.5C463.508 153.5 470 147.008 470 139V19C470 10.9919 463.508 4.5 455.5 4.5Z" fill="black" stroke="url(#paint4_linear_347_2352)" stroke-width="9"/>
<path d="M137.862 37V60.7971H130.972V48.6064L109.293 70L104.422 65.1927L126.101 43.7991H113.747V37H137.862ZM77.6155 37V43.7991H65.2619L86.9412 65.1927L82.0697 70L60.3905 48.6064V60.7971H53.5005V37H77.6155ZM109.293 87.25L130.972 108.643V96.4527H137.862V120.25H113.747V113.451H126.101L104.422 92.0573L109.293 87.25ZM104.68 64.75L109.742 69.4692L65.3573 113.376H77.811V120.25H53.5005V96.1919H60.4463V108.516L104.68 64.75Z" fill="white"/>
<path fill-rule="evenodd" clip-rule="evenodd" d="M180.7 81.9176C180.7 78.1376 181.464 74.7851 182.992 71.8601C184.519 68.9351 186.606 66.6851 189.25 65.1101C191.895 63.5351 194.836 62.7476 198.074 62.7476C200.537 62.7476 202.885 63.2763 205.12 64.3338C207.354 65.3913 209.132 66.7976 210.455 68.5526V50.8001H220.168V100.75H210.455V95.2151C209.269 97.0601 207.605 98.5451 205.462 99.6701C203.318 100.795 200.833 101.358 198.006 101.358C194.814 101.358 191.895 100.548 189.25 98.9276C186.606 97.3076 184.519 95.0238 182.992 92.0763C181.464 89.1288 180.7 85.7426 180.7 81.9176ZM210.523 82.0526C210.523 79.7576 210.067 77.7888 209.155 76.1463C208.243 74.5038 207.012 73.2438 205.462 72.3663C203.911 71.4888 202.247 71.0501 200.468 71.0501C198.69 71.0501 197.048 71.4776 195.543 72.3326C194.038 73.1876 192.819 74.4363 191.884 76.0788C190.949 77.7213 190.482 79.6676 190.482 81.9176C190.482 84.1676 190.949 86.1363 191.884 87.8238C192.819 89.5113 194.05 90.8051 195.578 91.7051C197.105 92.6051 198.735 93.0551 200.468 93.0551C202.247 93.0551 203.911 92.6163 205.462 91.7388C207.012 90.8613 208.243 89.6013 209.155 87.9588C210.067 86.3163 210.523 84.3476 210.523 82.0526ZM251.381 62.8151C255.895 62.8151 259.543 64.2213 262.325 67.0338C265.107 69.8463 266.497 73.7726 266.497 78.8126V100.75H256.921V80.0951C256.921 77.1251 256.169 74.8413 254.664 73.2438C253.159 71.6463 251.107 70.8476 248.508 70.8476C245.863 70.8476 243.777 71.6463 242.249 73.2438C240.721 74.8413 239.958 77.1251 239.958 80.0951V100.75H230.381V63.3551H239.958V68.0126C241.234 66.3926 242.865 65.1213 244.848 64.1988C246.832 63.2763 249.009 62.8151 251.381 62.8151ZM273.975 81.9176C273.975 78.1376 274.739 74.7851 276.266 71.8601C277.794 68.9351 279.88 66.6851 282.525 65.1101C285.17 63.5351 288.111 62.7476 291.349 62.7476C293.811 62.7476 296.16 63.2763 298.394 64.3338C300.629 65.3913 302.407 66.7976 303.73 68.5526V50.8001H313.443V100.75H303.73V95.2151C302.544 97.0601 300.88 98.5451 298.736 99.6701C296.593 100.795 294.108 101.358 291.281 101.358C288.088 101.358 285.17 100.548 282.525 98.9276C279.88 97.3076 277.794 95.0238 276.266 92.0763C274.739 89.1288 273.975 85.7426 273.975 81.9176ZM303.798 82.0526C303.798 79.7576 303.342 77.7888 302.43 76.1463C301.518 74.5038 300.287 73.2438 298.736 72.3663C297.186 71.4888 295.521 71.0501 293.743 71.0501C291.965 71.0501 290.323 71.4776 288.818 72.3326C287.313 73.1876 286.093 74.4363 285.159 76.0788C284.224 77.7213 283.756 79.6676 283.756 81.9176C283.756 84.1676 284.224 86.1363 285.159 87.8238C286.093 89.5113 287.325 90.8051 288.852 91.7051C290.38 92.6051 292.01 93.0551 293.743 93.0551C295.521 93.0551 297.186 92.6163 298.736 91.7388C300.287 90.8613 301.518 89.6013 302.43 87.9588C303.342 86.3163 303.798 84.3476 303.798 82.0526ZM363.214 100.75L350.355 84.8201V100.75H340.778V50.8001H350.355V79.2176L363.077 63.3551H375.526L358.836 82.1201L375.663 100.75H363.214ZM386.424 58.9001C384.737 58.9001 383.334 58.3713 382.217 57.3138C381.1 56.2563 380.541 54.9401 380.541 53.3651C380.541 51.7901 381.1 50.4738 382.217 49.4163C383.334 48.3588 384.737 47.8301 386.424 47.8301C388.111 47.8301 389.513 48.3588 390.631 49.4163C391.748 50.4738 392.306 51.7901 392.306 53.3651C392.306 54.9401 391.748 56.2563 390.631 57.3138C389.513 58.3713 388.111 58.9001 386.424 58.9001ZM391.144 63.3551V100.75H381.567V63.3551H391.144ZM412.575 71.1176V89.2076C412.575 90.4676 412.883 91.3788 413.498 91.9413C414.114 92.5038 415.152 92.7851 416.611 92.7851H421.057V100.75H415.038C406.966 100.75 402.93 96.8801 402.93 89.1401V71.1176H398.416V63.3551H402.93V54.1076H412.575V63.3551H421.057V71.1176H412.575Z" fill="white"/>
</g>
<defs>
<linearGradient id="paint0_linear_347_2352" x1="547.124" y1="10.0775" x2="661.367" y2="65.6148" gradientUnits="userSpaceOnUse">
<stop offset="0.1" stop-color="#76B3E1"/>
<stop offset="0.3" stop-color="#DCF2FD"/>
<stop offset="1" stop-color="#76B3E1"/>
</linearGradient>
<linearGradient id="paint1_linear_347_2352" x1="609.8" y1="37.2642" x2="589.809" y2="103.87" gradientUnits="userSpaceOnUse">
<stop stop-color="#76B3E1"/>
<stop offset="0.5" stop-color="#4377BB"/>
<stop offset="1" stop-color="#1F3B77"/>
</linearGradient>
<linearGradient id="paint2_linear_347_2352" x1="538.73" y1="66.3115" x2="654.239" y2="144.877" gradientUnits="userSpaceOnUse">
<stop stop-color="#315AA9"/>
<stop offset="0.5" stop-color="#518AC8"/>
<stop offset="1" stop-color="#315AA9"/>
</linearGradient>
<linearGradient id="paint3_linear_347_2352" x1="590.898" y1="75.7095" x2="544.312" y2="246.611" gradientUnits="userSpaceOnUse">
<stop stop-color="#4377BB"/>
<stop offset="0.5" stop-color="#1A336B"/>
<stop offset="1" stop-color="#1A336B"/>
</linearGradient>
<linearGradient id="paint4_linear_347_2352" x1="9.49999" y1="149" x2="472.5" y2="8.99995" gradientUnits="userSpaceOnUse">
<stop stop-color="#5F6AF2"/>
<stop offset="1" stop-color="#A65FF2"/>
</linearGradient>
<clipPath id="clip0_347_2352">
<rect width="474" height="158" fill="white" transform="translate(0.5)"/>
</clipPath>
</defs>
</svg>
